<?xml version="1.0" encoding="UTF-8" standalone="no"?>
<!-- Created with Inkscape (http://www.inkscape.org/) -->

<svg
   width="210mm"
   height="297mm"
   viewBox="0 0 210 297"
   version="1.1"
   id="svg1"
   sodipodi:docname="cute.svg"
   inkscape:version="1.3.2 (091e20ef0f, 2023-11-25)"
   xmlns:inkscape="http://www.inkscape.org/namespaces/inkscape"
   xmlns:sodipodi="http://sodipodi.sourceforge.net/DTD/sodipodi-0.dtd"
   xmlns="http://www.w3.org/2000/svg"
   xmlns:svg="http://www.w3.org/2000/svg">
  <sodipodi:namedview
     id="namedview1"
     pagecolor="#404040"
     bordercolor="#000000"
     borderopacity="0.25"
     inkscape:showpageshadow="false"
     inkscape:pageopacity="0.0"
     inkscape:pagecheckerboard="0"
     inkscape:deskcolor="#343434"
     inkscape:document-units="mm"
     inkscape:zoom="1.0141844"
     inkscape:cx="316.01748"
     inkscape:cy="646.33217"
     inkscape:window-width="1920"
     inkscape:window-height="1011"
     inkscape:window-x="0"
     inkscape:window-y="0"
     inkscape:window-maximized="1"
     inkscape:current-layer="layer1" />
  <defs
     id="defs1" />
  <g
     inkscape:label="Layer 1"
     inkscape:groupmode="layer"
     id="layer1">
    <path
       id="path17"
       style="fill:#4242b1;fill-opacity:1;stroke-width:0.944;stroke:#000000;stroke-dasharray:none"
       inkscape:label="back-fin"
       d="M 146.37815 99.155705 C 130.70456 98.424001 101.87234 119.90327 78.377645 150.67814 C 59.316523 175.64563 47.297473 202.55606 47.85341 217.46115 C 37.053566 216.44276 24.287273 220.65288 21.300509 223.88091 C 17.193031 228.32016 28.397142 232.52778 42.975671 234.78619 C 55.134473 236.66974 61.121633 253.92325 65.229093 249.484 C 68.351771 246.10907 68.961691 236.11418 64.443612 227.99642 C 81.631131 222.85225 108.61628 199.66024 129.33836 172.51712 C 155.26354 138.55864 164.87199 106.1408 150.79958 100.11017 C 149.48029 99.544797 147.99955 99.231398 146.37815 99.155705 z " />
    <path
       style="fill:none;stroke:#000000;stroke-width:0.765;stroke-dasharray:none"
       d="m 100.46842,125.76736 c 0,0 -4.143265,7.56619 5.60812,8.29265"
       id="path4"
       sodipodi:nodetypes="cc"
       inkscape:label="gill5" />
    <path
       style="fill:none;stroke:#000000;stroke-width:0.765;stroke-dasharray:none"
       d="m 107.20875,119.67565 c 0,0 -4.14327,7.56619 5.60812,8.29265"
       id="path6"
       sodipodi:nodetypes="cc"
       inkscape:label="gill4" />
    <path
       style="fill:none;stroke:#000000;stroke-width:0.765;stroke-dasharray:none"
       d="m 93.677889,132.67741 c 0,0 -4.14327,7.56619 5.608119,8.29265"
       id="path7"
       sodipodi:nodetypes="cc"
       inkscape:label="gill3" />
    <path
       style="fill:none;stroke:#000000;stroke-width:0.765;stroke-dasharray:none"
       d="m 97.370424,128.87632 c 0,0 -4.14327,7.56619 5.608116,8.29265"
       id="path8"
       sodipodi:nodetypes="cc"
       inkscape:label="gill2" />
    <path
       style="fill:none;stroke:#000000;stroke-width:0.765;stroke-dasharray:none"
       d="m 103.85584,122.66201 c 0,0 -4.143256,7.56619 5.60812,8.29265"
       id="path9"
       sodipodi:nodetypes="cc"
       inkscape:label="gill" />
    <path
       id="path16"
       style="fill:#4242b1;fill-opacity:1;stroke:#000000;stroke-width:0.944;stroke-dasharray:none"
       d="m 90.795697,165.21869 c -4.107465,4.43926 -10.094861,-12.81402 -22.253675,-14.69758 -14.578544,-2.25841 -25.782285,-6.46626 -21.674803,-10.90552 4.107465,-4.43926 26.714163,-10.74613 37.259796,-2.7395 10.545583,8.00663 10.776164,23.90332 6.668682,28.3426 z"
       sodipodi:nodetypes="sssss"
       inkscape:label="fin" />
    <path
       id="path19"
       style="fill:#4242b1;fill-opacity:1;stroke:#000000;stroke-width:0.944;stroke-dasharray:none"
       d="m 95.736818,170.62255 c -2.478845,5.51667 15.741772,4.27813 22.231342,14.73134 7.78107,12.53352 16.03615,21.19862 18.51499,15.68192 2.47885,-5.51666 -0.55975,-28.78909 -12.05348,-35.36255 -11.49375,-6.57341 -26.213996,-0.56741 -28.692852,4.94929 z"
       sodipodi:nodetypes="sssss"
       inkscape:label="fin" />
    <path
       id="path1"
       style="fill:#ffffff;stroke-width:0.265;stroke-dasharray:none"
       d="m 132.37547,169.71682 c -22.25406,28.84262 -51.686014,55.55497 -63.462545,50.5614 -11.77653,-4.99358 -1.438101,-39.80212 20.815952,-68.64474 22.254053,-28.84262 49.841293,-48.17609 61.617823,-43.18252 11.77653,4.99358 3.28282,32.42324 -18.97123,61.26586 z"
       sodipodi:nodetypes="sssss"
       inkscape:label="stomahc" />
    <circle
       style="fill:#000000;fill-opacity:1;stroke-width:0.264583"
       id="path3"
       cx="128.66925"
       cy="109.45102"
       r="3.4127331"
       inkscape:label="eye" />
    <circle
       style="fill:#f9f9f9;fill-opacity:1;stroke-width:0.0774945"
       id="circle3"
       cx="130.16931"
       cy="107.88571"
       r="0.99956644"
       inkscape:label="eye reflection" />
    <g
       id="g19"
       inkscape:label="moutf">
      <path
         id="path2"
         style="fill:#ff7cde;fill-opacity:1;stroke-width:0.140229"
         d="m 146.87219,139.69971 c -2.4201,2.49804 -1.51844,-7.43517 -7.73188,-11.94062 -6.21344,-4.50545 -17.18905,-1.87703 -14.76894,-4.37507 2.4201,-2.49804 13.4342,-5.16619 19.64764,-0.66074 6.21341,4.50545 5.27329,14.47838 2.85318,16.97643 z"
         sodipodi:nodetypes="sssss"
         inkscape:label="mouf" />
      <ellipse
         style="fill:#ffffff;stroke:none;stroke-width:0.282977;stroke-dasharray:none"
         id="path10"
         cx="194.39713"
         cy="137.7404"
         rx="1.7063665"
         ry="1.9194459"
         transform="matrix(1,0,-0.48053466,0.87697573,0,0)"
         inkscape:label="tooth8" />
      <ellipse
         style="fill:#ffffff;stroke:none;stroke-width:0.275542;stroke-dasharray:none"
         id="ellipse10"
         cx="181.40157"
         cy="129.74998"
         rx="1.7063665"
         ry="1.8199093"
         transform="matrix(1,0,-0.38011245,0.92494028,0,0)"
         inkscape:label="tooth7" />
      <ellipse
         style="fill:#ffffff;stroke:none;stroke-width:0.270821;stroke-dasharray:none"
         id="ellipse11"
         cx="172.54399"
         cy="125.34248"
         rx="1.7063665"
         ry="1.7580885"
         transform="matrix(1,0,-0.28855096,0.95746454,0,0)"
         inkscape:label="tooth6" />
      <ellipse
         style="fill:#ffffff;stroke:none;stroke-width:0.268126;stroke-dasharray:none"
         id="ellipse12"
         cx="167.14622"
         cy="123.66239"
         rx="1.7063665"
         ry="1.7232654"
         transform="matrix(1,0,-0.21409593,0.97681264,0,0)"
         inkscape:label="tooth5" />
      <ellipse
         style="fill:#ffffff;stroke:none;stroke-width:0.263178;stroke-dasharray:none"
         id="ellipse13"
         cx="145.01103"
         cy="123.07783"
         rx="1.6602485"
         ry="1.7063664"
         inkscape:label="tooth4" />
      <ellipse
         style="fill:#ffffff;stroke:none;stroke-width:0.27067;stroke-dasharray:none"
         id="ellipse14"
         cx="153.93002"
         cy="170.77269"
         rx="1.7801793"
         ry="1.6833074"
         transform="matrix(0.95853636,-0.28497026,0,1,0,0)"
         inkscape:label="tooth3" />
      <ellipse
         style="fill:#ffffff;stroke:none;stroke-width:0.268043;stroke-dasharray:none"
         id="ellipse15"
         cx="152.16061"
         cy="163.49263"
         rx="1.7457968"
         ry="1.6833074"
         transform="matrix(0.97741417,-0.21133278,0,1,0,0)"
         inkscape:label="tooth2" />
      <ellipse
         style="fill:#ffffff;stroke:none;stroke-width:0.272824;stroke-dasharray:none"
         id="ellipse16"
         cx="157.24564"
         cy="187.88974"
         rx="1.8086259"
         ry="1.6833074"
         transform="matrix(0.94346014,-0.33148598,0,1,0,0)"
         inkscape:label="tooth" />
    </g>
  </g>
</svg>
