<?xml version="1.0" encoding="UTF-8" standalone="no"?>
<!-- Created with Inkscape (http://www.inkscape.org/) -->

<svg
   width="210mm"
   height="297mm"
   viewBox="0 0 210 297"
   version="1.1"
   id="svg1"
   inkscape:version="1.3.2 (091e20ef0f, 2023-11-25)"
   sodipodi:docname="standing.svg"
   xmlns:inkscape="http://www.inkscape.org/namespaces/inkscape"
   xmlns:sodipodi="http://sodipodi.sourceforge.net/DTD/sodipodi-0.dtd"
   xmlns="http://www.w3.org/2000/svg"
   xmlns:svg="http://www.w3.org/2000/svg">
  <sodipodi:namedview
     id="namedview1"
     pagecolor="#505050"
     bordercolor="#eeeeee"
     borderopacity="1"
     inkscape:showpageshadow="0"
     inkscape:pageopacity="0"
     inkscape:pagecheckerboard="0"
     inkscape:deskcolor="#505050"
     inkscape:document-units="mm"
     inkscape:zoom="1.0141844"
     inkscape:cx="240.58742"
     inkscape:cy="646.33219"
     inkscape:window-width="1920"
     inkscape:window-height="1011"
     inkscape:window-x="0"
     inkscape:window-y="0"
     inkscape:window-maximized="1"
     inkscape:current-layer="layer1" />
  <defs
     id="defs1" />
  <g
     inkscape:label="Layer 1"
     inkscape:groupmode="layer"
     id="layer1">
    <path
       id="path18"
       style="display:none;opacity:1;fill:#c2c2c2;fill-opacity:1;stroke:#000000;stroke-width:0.984999;stroke-dasharray:none"
       d="m 100.48398,215.1353 c -3.547421,0 -6.40323,2.85581 -6.40323,6.40323 v 34.07595 c 0,3.54742 2.855809,6.40375 6.40323,6.40375 h 1.82624 c 0.38768,0 0.76492,-0.04 1.13326,-0.10542 h 16.32665 c 3.21577,0 5.80482,-2.58853 5.80482,-5.8043 v -1.95699 c 0,-3.21576 -2.58905,-5.80429 -5.80482,-5.80429 h -11.05668 v -26.8087 c 0,-3.54742 -2.85581,-6.40323 -6.40323,-6.40323 z" />
    <path
       id="path15"
       style="opacity:1;fill:#383896;stroke:#000000;stroke-width:0.985;stroke-dasharray:none;fill-opacity:1"
       d="M 34.307467 197.70163 C 31.874964 197.88544 33.235579 209.3339 26.70328 216.69065 C 19.495224 224.80844 5.4064935 224.87001 9.0945353 227.42023 C 12.043932 229.45971 23.702038 231.66112 31.94172 228.31165 C 40.058437 239.28875 60.358394 248.76826 74.890002 243.22236 C 94.361018 235.79137 97.627629 238.12302 97.627633 231.83236 C 97.627637 225.54169 87.399801 227.25897 75.489966 230.77248 C 64.936678 233.88578 50.057432 225.43364 39.889555 220.07391 C 42.691165 211.61675 38.273859 200.15041 35.197335 198.02306 C 34.85158 197.78397 34.559105 197.68261 34.307467 197.70163 z " />
    <path
       id="path14"
       style="fill:#383896;stroke:#000000;stroke-width:0.765;fill-opacity:1"
       d="m 85.227123,150.3398 c 3.998265,-6.9252 -3.367689,11.00905 9.913797,22.74388 13.28148,11.73483 55.8645,-8.08302 49.44839,4.07355 -6.41612,12.15656 -37.0198,24.7915 -50.932583,16.75895 C 79.74394,185.88363 81.228858,157.265 85.227123,150.3398 Z"
       sodipodi:nodetypes="szzss" />
    <path
       id="path12"
       style="fill:#4242b1;fill-opacity:1;stroke:#000000;stroke-width:1.15825"
       d="m 96.154994,193.63758 c 6e-6,6.86426 -12.264506,-4.9507 -27.149928,-4.9507 -14.885423,0 -27.265271,26.21549 -29.124877,9.88807 -1.859606,-16.32742 12.857004,-35.14074 29.322371,-26.64847 13.229439,6.82329 26.952422,14.84683 26.952434,21.7111 z"
       sodipodi:nodetypes="sszss" />
    <rect
       style="fill:#4242b1;fill-opacity:1;stroke-width:0.765;stroke:#000000;stroke-dasharray:none"
       id="rect1"
       width="53.865841"
       height="125.80994"
       x="61.982609"
       y="125.07204"
       ry="26.93292" />
    <path
       id="rect2"
       style="fill:#ffffff;stroke-width:0.282393"
       d="m 108.45853,146.11516 c -17.175187,0 -31.001733,11.88754 -31.001733,26.65367 v 71.19824 c 0,1.41186 0.127893,2.7967 0.371553,4.14806 3.282868,1.41874 6.902708,2.2133 10.718209,2.2133 14.920831,0 26.932731,-12.0119 26.932731,-26.93272 v -71.94393 c 0,-1.61641 -0.1663,-3.19028 -0.43667,-4.72684 -2.12231,-0.39196 -4.32163,-0.60978 -6.58409,-0.60978 z" />
    <path
       id="path4"
       style="fill:#000000;fill-opacity:1;stroke:none;stroke-width:0.264583"
       d="M 103.75697 137.99985 A 3.3262568 3.3262568 0 0 0 102.13588 140.89734 A 3.3262568 3.3262568 0 0 0 105.4871 144.17311 A 3.3262568 3.3262568 0 0 0 108.64195 141.81408 L 103.75697 137.99985 z " />
    <path
       id="path5"
       style="fill:#ffffff;fill-opacity:1;stroke:none;stroke-width:0.114134"
       d="M 105.41062 139.29072 A 1.4348558 1.4348558 0 0 0 104.80962 140.47721 A 1.4348558 1.4348558 0 0 0 106.25553 141.89005 A 1.4348558 1.4348558 0 0 0 107.57586 140.98158 L 105.41062 139.29072 z " />
    <path
       id="path7"
       style="fill:#ff7cde;fill-opacity:1;stroke-width:0.264583"
       d="m 113.93131,157.32683 c -9.59923,0.0734 -17.22477,10.10327 -17.079063,13.32735 0.145691,3.22409 8.008333,-6.52135 17.609773,-6.54585 0.37317,-9.5e-4 0.74228,0.0173 1.1095,0.0444 v -6.73912 c -0.54088,-0.0588 -1.08743,-0.091 -1.64021,-0.0868 z" />
    <path
       style="fill:#ffffff;fill-opacity:1;stroke:none;stroke-width:0.264583"
       id="path8"
       sodipodi:type="arc"
       sodipodi:cx="113.49642"
       sodipodi:cy="157.52724"
       sodipodi:rx="1.5218943"
       sodipodi:ry="1.5218943"
       sodipodi:start="0"
       sodipodi:end="6.2528364"
       sodipodi:open="true"
       sodipodi:arc-type="arc"
       d="m 115.01832,157.52724 a 1.5218943,1.5218943 0 0 1 -1.51035,1.52185 1.5218943,1.5218943 0 0 1 -1.53327,-1.49876 1.5218943,1.5218943 0 0 1 1.48708,-1.54459 1.5218943,1.5218943 0 0 1 1.55584,1.47532" />
    <path
       style="fill:#ffffff;fill-opacity:1;stroke:none;stroke-width:0.260884"
       id="path9"
       sodipodi:type="arc"
       sodipodi:cx="104.05801"
       sodipodi:cy="158.42009"
       sodipodi:rx="1.5218943"
       sodipodi:ry="1.5224972"
       sodipodi:start="0"
       sodipodi:end="6.2528364"
       sodipodi:open="true"
       sodipodi:arc-type="arc"
       d="m 105.5799,158.42009 a 1.5218943,1.5224972 0 0 1 -1.51035,1.52245 1.5218943,1.5224972 0 0 1 -1.53326,-1.49935 1.5218943,1.5224972 0 0 1 1.48708,-1.5452 1.5218943,1.5224972 0 0 1 1.55583,1.4759"
       transform="matrix(1,0,0.02813831,0.99960404,0,0)" />
    <path
       style="fill:#ffffff;fill-opacity:1;stroke:none;stroke-width:0.261196"
       id="path10"
       sodipodi:type="arc"
       sodipodi:cx="92.069229"
       sodipodi:cy="161.38814"
       sodipodi:rx="1.5218943"
       sodipodi:ry="1.5261323"
       sodipodi:start="0"
       sodipodi:end="6.2528364"
       sodipodi:open="true"
       sodipodi:arc-type="arc"
       d="m 93.591123,161.38814 a 1.5218943,1.5261323 0 0 1 -1.510347,1.52609 1.5218943,1.5261323 0 0 1 -1.533266,-1.50293 1.5218943,1.5261323 0 0 1 1.487081,-1.5489 1.5218943,1.5261323 0 0 1 1.555832,1.47943"
       transform="matrix(1,0,0.07447341,0.997223,0,0)" />
    <path
       style="fill:#ffffff;fill-opacity:1;stroke:none;stroke-width:0.263486"
       id="path11"
       sodipodi:type="arc"
       sodipodi:cx="66.807533"
       sodipodi:cy="167.85765"
       sodipodi:rx="1.5218943"
       sodipodi:ry="1.55301"
       sodipodi:start="0"
       sodipodi:end="6.2528364"
       sodipodi:open="true"
       sodipodi:arc-type="arc"
       d="m 68.329428,167.85765 a 1.5218943,1.55301 0 0 1 -1.510348,1.55297 1.5218943,1.55301 0 0 1 -1.533266,-1.5294 1.5218943,1.55301 0 0 1 1.487081,-1.57618 1.5218943,1.55301 0 0 1 1.555832,1.50549"
       transform="matrix(1,0,0.1991735,0.97996424,0,0)" />
    <path
       id="path13"
       style="fill:#4242b1;stroke:#000000;stroke-width:0.765"
       d="m 70.284886,165.4665 c 3.998265,-6.9252 -3.367689,11.00905 9.913797,22.74388 13.281483,11.73483 55.864507,-8.08302 49.448397,4.07355 -6.41612,12.15656 -37.019802,24.7915 -50.93259,16.75895 C 64.801703,201.01033 66.286621,172.3917 70.284886,165.4665 Z"
       sodipodi:nodetypes="szzss" />
    <path
       id="rect16"
       style="display:none;opacity:1;fill:#ffffff;fill-opacity:1;stroke:#000000;stroke-width:0.984999;stroke-dasharray:none"
       d="m 85.726213,225.09679 c -3.547418,0 -6.403227,2.85581 -6.403227,6.40323 v 34.07595 c 0,3.54742 2.855809,6.40375 6.403227,6.40375 h 1.826245 c 0.387684,0 0.764924,-0.04 1.133264,-0.10542 h 16.326648 c 3.21577,0 5.80482,-2.58853 5.80482,-5.8043 v -1.95699 c 0,-3.21576 -2.58905,-5.80429 -5.80482,-5.80429 H 93.955684 v -26.8087 c 0,-3.54742 -2.855809,-6.40323 -6.403226,-6.40323 z" />
  </g>
</svg>
