<?xml version="1.0" encoding="UTF-8" standalone="no"?>
<!-- Created with Inkscape (http://www.inkscape.org/) -->

<svg
   width="210mm"
   height="297mm"
   viewBox="0 0 210 297"
   version="1.1"
   id="svg1"
   inkscape:version="1.3.2 (091e20ef0f, 2023-11-25)"
   sodipodi:docname="particles.svg"
   xmlns:inkscape="http://www.inkscape.org/namespaces/inkscape"
   xmlns:sodipodi="http://sodipodi.sourceforge.net/DTD/sodipodi-0.dtd"
   xmlns="http://www.w3.org/2000/svg"
   xmlns:svg="http://www.w3.org/2000/svg">
  <sodipodi:namedview
     id="namedview1"
     pagecolor="#505050"
     bordercolor="#eeeeee"
     borderopacity="1"
     inkscape:showpageshadow="0"
     inkscape:pageopacity="0"
     inkscape:pagecheckerboard="0"
     inkscape:deskcolor="#505050"
     inkscape:document-units="mm"
     inkscape:zoom="2.0283687"
     inkscape:cx="236.39686"
     inkscape:cy="222.09966"
     inkscape:window-width="1920"
     inkscape:window-height="1011"
     inkscape:window-x="0"
     inkscape:window-y="0"
     inkscape:window-maximized="1"
     inkscape:current-layer="layer1" />
  <defs
     id="defs1" />
  <g
     inkscape:label="Layer 1"
     inkscape:groupmode="layer"
     id="layer1">
    <path
       sodipodi:type="star"
       style="fill:#ffffff;stroke:#000000;stroke-width:0.918001"
       id="path1"
       inkscape:flatsided="false"
       sodipodi:sides="5"
       sodipodi:cx="25.957846"
       sodipodi:cy="20.218422"
       sodipodi:r1="6.6387515"
       sodipodi:r2="13.277503"
       sodipodi:arg1="0.98824326"
       sodipodi:arg2="1.6165618"
       inkscape:rounded="0"
       inkscape:randomized="0"
       d="m 29.610206,25.762183 -4.259799,7.71984 -3.53635,-8.076884 -8.658354,-1.665748 6.58878,-5.859162 -1.091358,-8.7493292 7.60844,4.4557222 7.983858,-3.7416347 -1.886506,8.6129497 6.025654,6.436872 z"
       transform="rotate(-41.096126,25.939946,21.022506)" />
    <path
       id="rect1"
       style="fill:#ffffff;stroke:#000000;stroke-width:0.918001"
       d="M 54.000838 15.409912 L 50.413977 18.99729 L 55.813131 24.396444 L 51.144682 24.396444 L 51.144682 29.469519 L 55.812614 29.469519 L 50.413977 34.868673 L 54.000838 38.455534 L 59.399992 33.05638 L 59.399992 37.724312 L 64.473067 37.724312 L 64.473067 33.056897 L 69.872221 38.455534 L 73.459082 34.868673 L 68.060445 29.469519 L 72.727861 29.469519 L 72.727861 24.396444 L 68.059928 24.396444 L 73.459082 18.99729 L 69.872221 15.409912 L 64.473067 20.809066 L 64.473067 16.141134 L 59.399992 16.141134 L 59.399992 20.809583 L 54.000838 15.409912 z " />
    <path
       sodipodi:type="star"
       style="fill:#ffffff;stroke:#000000;stroke-width:0.918001"
       id="path5"
       inkscape:flatsided="false"
       sodipodi:sides="6"
       sodipodi:cx="26.840681"
       sodipodi:cy="53.312424"
       sodipodi:r1="12.251083"
       sodipodi:r2="6.1255417"
       sodipodi:arg1="1.1105157"
       sodipodi:arg2="1.6341145"
       inkscape:rounded="0"
       inkscape:randomized="0"
       d="m 32.282607,64.288511 -5.829525,-4.862821 -6.397008,4.087623 1.296563,-7.479927 -6.738489,-3.49616 7.126088,-2.617106 -0.341481,-7.583783 5.829525,4.86282 6.397009,-4.087623 -1.296564,7.479927 6.738489,3.49616 -7.126088,2.617107 z"
       inkscape:transform-center-x="-0.63316678"
       inkscape:transform-center-y="-0.55121939" />
    <path
       sodipodi:type="star"
       style="fill:#ffffff;stroke:#000000;stroke-width:0.918001"
       id="path7"
       inkscape:flatsided="false"
       sodipodi:sides="7"
       sodipodi:cx="53.958076"
       sodipodi:cy="53.312424"
       sodipodi:r1="19.2481"
       sodipodi:r2="4.6979284"
       sodipodi:arg1="0.50734437"
       sodipodi:arg2="0.95614337"
       inkscape:rounded="0"
       inkscape:randomized="0"
       d="M 70.781645,62.664264 56.667255,57.150507 57.135836,72.296396 52.646487,57.82355 41.09711,67.63321 49.613373,55.099623 34.742954,52.186179 49.851909,51.029898 42.858177,37.587234 l 10.324296,11.091728 6.149378,-13.849285 -2.234768,14.987439 14.66188,-3.82711 -13.111007,7.597303 z"
       inkscape:transform-center-x="-0.68405929"
       inkscape:transform-center-y="0.22138741"
       transform="translate(11.443316,6.7019205)" />
  </g>
</svg>
